<svg width="360" height="528" viewBox="0 0 360 528" fill="none" xmlns="http://www.w3.org/2000/svg">
<path d="M-6 10L296 10C314.225 10 329 24.7746 329 43C329 61.2254 314.225 76 296 76H66C47.7746 76 33 90.7746 33 109C33 127.225 47.7746 142 66 142H296C314.225 142 329 156.775 329 175C329 193.225 314.225 208 296 208H66C47.7746 208 33 222.775 33 241C33 259.225 47.7746 274 66 274H296C314.225 274 329 288.775 329 307C329 325.225 314.225 340 296 340H66C47.7746 340 33 354.775 33 373C33 386.931 41.6324 398.846 53.8399 403.687L53.8608 403.696L368 518" stroke="#3785E0" stroke-width="20"/>
</svg>
