<svg width="360" height="522" viewBox="0 0 360 522" fill="none" xmlns="http://www.w3.org/2000/svg">
<path d="M0 8H296C314.225 8 329 22.7746 329 41C329 59.2254 314.225 74 296 74H66C47.7746 74 33 88.7746 33 107C33 125.225 47.7746 140 66 140H296C314.225 140 329 154.775 329 173C329 191.225 314.225 206 296 206H66C47.7746 206 33 220.775 33 239C33 257.225 47.7746 272 66 272H296C314.225 272 329 286.775 329 305C329 323.225 314.225 338 296 338H66C47.7746 338 33 352.775 33 371C33 384.931 41.6324 396.846 53.8399 401.687L53.8608 401.696L364 514.5" stroke="#005DE8" stroke-width="15"/>
</svg>
